STARTFONT 2.1
FONT -Linotype-Times-Bold-R-Normal--14-140-72-72-P-75-ISO8859-1
SIZE 14 72 72
FONTBOUNDINGBOX 19 18 -4 -4

STARTPROPERTIES 22
FONTNAME_REGISTRY "-"
FOUNDRY "Linotype"
FAMILY_NAME "Times"
WEIGHT_NAME "Bold"
SLANT "R"
SETWIDTH_NAME "Normal"
ADD_STYLE_NAME ""
PIXEL_SIZE 14
POINT_SIZE 140
RESOLUTION_X 72
RESOLUTION_Y 72
SPACING "P"
CHARSET_REGISTRY "ISO8859"
CHARSET_ENCODING "1"
FULL_NAME "Times-Bold"
AVERAGE_WIDTH 75
WEIGHT 10
X_HEIGHT 7
QUAD_WIDTH 8
DEFAULT_CHAR 32
FONT_DESCENT 3
FONT_ASCENT 12
ENDPROPERTIES

CHARS 190

STARTCHAR space
ENCODING 32
SWIDTH 250 0
DWIDTH 4 0
BBX 1 1 0 0
BITMAP
00
ENDCHAR

STARTCHAR exclam
ENCODING 33
SWIDTH 333 0
DWIDTH 5 0
BBX 2 10 1 0
BITMAP
C0
C0
C0
C0
C0
C0
00
00
C0
C0
ENDCHAR

STARTCHAR quotedbl
ENCODING 34
SWIDTH 555 0
DWIDTH 8 0
BBX 5 4 1 6
BITMAP
D8
D8
D8
D8
ENDCHAR

STARTCHAR numbersign
ENCODING 35
SWIDTH 500 0
DWIDTH 7 0
BBX 7 10 0 0
BITMAP
24
24
24
FE
24
48
FE
48
48
48
ENDCHAR

STARTCHAR dollar
ENCODING 36
SWIDTH 500 0
DWIDTH 7 0
BBX 6 12 1 -1
BITMAP
20
78
A8
A8
E0
70
38
3C
AC
A4
F8
20
ENDCHAR

STARTCHAR percent
ENCODING 37
SWIDTH 1000 0
DWIDTH 14 0
BBX 12 10 1 0
BITMAP
38C0
6F80
E980
CB00
D270
66D0
0DD0
0990
19A0
10C0
ENDCHAR

STARTCHAR ampersand
ENCODING 38
SWIDTH 833 0
DWIDTH 12 0
BBX 10 10 1 0
BITMAP
1C00
3200
3200
3C00
39C0
7C80
CF00
C740
E3C0
7D80
ENDCHAR

STARTCHAR quoteright
ENCODING 39
SWIDTH 333 0
DWIDTH 5 0
BBX 2 4 1 6
BITMAP
C0
C0
40
80
ENDCHAR

STARTCHAR parenleft
ENCODING 40
SWIDTH 333 0
DWIDTH 5 0
BBX 4 12 0 -2
BITMAP
10
20
40
C0
C0
C0
C0
C0
C0
40
20
10
ENDCHAR

STARTCHAR parenright
ENCODING 41
SWIDTH 333 0
DWIDTH 5 0
BBX 4 12 0 -2
BITMAP
80
40
20
30
30
30
30
30
30
20
40
80
ENDCHAR

STARTCHAR asterisk
ENCODING 42
SWIDTH 500 0
DWIDTH 7 0
BBX 5 5 1 4
BITMAP
20
A8
70
A8
20
ENDCHAR

STARTCHAR plus
ENCODING 43
SWIDTH 570 0
DWIDTH 8 0
BBX 7 7 0 0
BITMAP
10
10
10
FE
10
10
10
ENDCHAR

STARTCHAR comma
ENCODING 44
SWIDTH 250 0
DWIDTH 4 0
BBX 2 4 1 -2
BITMAP
C0
C0
40
80
ENDCHAR

STARTCHAR minus
ENCODING 45
SWIDTH 570 0
DWIDTH 8 0
BBX 7 1 0 3
BITMAP
FE
ENDCHAR

STARTCHAR period
ENCODING 46
SWIDTH 250 0
DWIDTH 4 0
BBX 2 2 1 0
BITMAP
C0
C0
ENDCHAR

STARTCHAR slash
ENCODING 47
SWIDTH 278 0
DWIDTH 4 0
BBX 4 10 0 0
BITMAP
10
10
20
20
20
40
40
40
80
80
ENDCHAR

STARTCHAR zero
ENCODING 48
SWIDTH 500 0
DWIDTH 7 0
BBX 6 10 0 0
BITMAP
30
48
CC
CC
CC
CC
CC
CC
48
30
ENDCHAR

STARTCHAR one
ENCODING 49
SWIDTH 500 0
DWIDTH 7 0
BBX 6 10 1 0
BITMAP
10
F0
30
30
30
30
30
30
30
FC
ENDCHAR

STARTCHAR two
ENCODING 50
SWIDTH 500 0
DWIDTH 7 0
BBX 7 10 0 0
BITMAP
78
FC
8C
0C
0C
18
10
22
7E
FC
ENDCHAR

STARTCHAR three
ENCODING 51
SWIDTH 500 0
DWIDTH 7 0
BBX 6 10 0 0
BITMAP
78
8C
0C
08
3C
1C
0C
0C
C8
F0
ENDCHAR

STARTCHAR four
ENCODING 52
SWIDTH 500 0
DWIDTH 7 0
BBX 6 10 0 0
BITMAP
08
18
38
38
58
98
FC
FC
18
18
ENDCHAR

STARTCHAR five
ENCODING 53
SWIDTH 500 0
DWIDTH 7 0
BBX 5 10 1 0
BITMAP
78
78
40
F0
F8
18
08
08
C8
F0
ENDCHAR

STARTCHAR six
ENCODING 54
SWIDTH 500 0
DWIDTH 7 0
BBX 6 10 1 0
BITMAP
08
30
60
C0
F8
CC
CC
CC
4C
38
ENDCHAR

STARTCHAR seven
ENCODING 55
SWIDTH 500 0
DWIDTH 7 0
BBX 7 10 0 0
BITMAP
7E
FC
84
0C
08
08
18
10
10
30
ENDCHAR

STARTCHAR eight
ENCODING 56
SWIDTH 500 0
DWIDTH 7 0
BBX 6 10 0 0
BITMAP
78
CC
CC
E8
70
78
DC
CC
CC
78
ENDCHAR

STARTCHAR nine
ENCODING 57
SWIDTH 500 0
DWIDTH 7 0
BBX 6 10 0 0
BITMAP
70
C8
CC
CC
CC
CC
7C
18
10
60
ENDCHAR

STARTCHAR colon
ENCODING 58
SWIDTH 333 0
DWIDTH 5 0
BBX 2 7 1 0
BITMAP
C0
C0
00
00
00
C0
C0
ENDCHAR

STARTCHAR semicolon
ENCODING 59
SWIDTH 333 0
DWIDTH 5 0
BBX 2 9 1 -2
BITMAP
C0
C0
00
00
00
C0
C0
40
80
ENDCHAR

STARTCHAR less
ENCODING 60
SWIDTH 570 0
DWIDTH 8 0
BBX 7 7 0 0
BITMAP
06
18
60
80
60
18
06
ENDCHAR

STARTCHAR equal
ENCODING 61
SWIDTH 570 0
DWIDTH 8 0
BBX 7 4 0 1
BITMAP
FE
00
00
FE
ENDCHAR

STARTCHAR greater
ENCODING 62
SWIDTH 570 0
DWIDTH 8 0
BBX 7 7 1 0
BITMAP
C0
30
0C
02
0C
30
C0
ENDCHAR

STARTCHAR question
ENCODING 63
SWIDTH 500 0
DWIDTH 7 0
BBX 5 11 1 -1
BITMAP
70
98
D8
D8
10
20
20
00
00
60
60
ENDCHAR

STARTCHAR at
ENCODING 64
SWIDTH 930 0
DWIDTH 13 0
BBX 12 12 1 -2
BITMAP
0FC0
3820
7010
67D0
CCD0
DCD0
D990
D990
CEE0
6000
3080
1F00
ENDCHAR

STARTCHAR A
ENCODING 65
SWIDTH 722 0
DWIDTH 10 0
BBX 9 10 0 0
BITMAP
0800
0800
1C00
1C00
1C00
2600
2600
7F00
4300
E780
ENDCHAR

STARTCHAR B
ENCODING 66
SWIDTH 667 0
DWIDTH 9 0
BBX 8 10 0 0
BITMAP
FE
63
63
62
7E
63
63
63
63
FE
ENDCHAR

STARTCHAR C
ENCODING 67
SWIDTH 722 0
DWIDTH 10 0
BBX 8 10 1 0
BITMAP
3D
63
C1
C1
C0
C0
C0
C1
63
3C
ENDCHAR

STARTCHAR D
ENCODING 68
SWIDTH 722 0
DWIDTH 10 0
BBX 9 10 0 0
BITMAP
FE00
6300
6180
6180
6180
6180
6180
6180
6300
FE00
ENDCHAR

STARTCHAR E
ENCODING 69
SWIDTH 667 0
DWIDTH 9 0
BBX 9 10 0 0
BITMAP
FF00
6100
6500
6400
7C00
6400
6400
6080
6180
FF00
ENDCHAR

STARTCHAR F
ENCODING 70
SWIDTH 611 0
DWIDTH 9 0
BBX 8 10 0 0
BITMAP
FF
61
65
64
7C
64
64
60
60
F0
ENDCHAR

STARTCHAR G
ENCODING 71
SWIDTH 778 0
DWIDTH 11 0
BBX 9 10 1 0
BITMAP
3D00
6300
C100
C100
C000
C780
C300
C300
6300
3F00
ENDCHAR

STARTCHAR H
ENCODING 72
SWIDTH 778 0
DWIDTH 11 0
BBX 10 10 0 0
BITMAP
F3C0
6180
6180
6180
7F80
6180
6180
6180
6180
F3C0
ENDCHAR

STARTCHAR I
ENCODING 73
SWIDTH 389 0
DWIDTH 5 0
BBX 4 10 1 0
BITMAP
F0
60
60
60
60
60
60
60
60
F0
ENDCHAR

STARTCHAR J
ENCODING 74
SWIDTH 500 0
DWIDTH 7 0
BBX 6 12 0 -2
BITMAP
3C
18
18
18
18
18
18
18
18
D8
D8
70
ENDCHAR

STARTCHAR K
ENCODING 75
SWIDTH 778 0
DWIDTH 11 0
BBX 10 10 1 0
BITMAP
F780
6200
6400
6800
7800
7C00
6E00
6700
6380
F7C0
ENDCHAR

STARTCHAR L
ENCODING 76
SWIDTH 667 0
DWIDTH 9 0
BBX 8 10 1 0
BITMAP
F0
60
60
60
60
60
60
61
63
FE
ENDCHAR

STARTCHAR M
ENCODING 77
SWIDTH 944 0
DWIDTH 13 0
BBX 12 10 1 0
BITMAP
E070
70E0
70E0
5960
5960
4E60
4E60
4E60
4460
E4F0
ENDCHAR

STARTCHAR N
ENCODING 78
SWIDTH 722 0
DWIDTH 10 0
BBX 10 10 0 0
BITMAP
E1C0
7080
7880
5880
4C80
4680
4780
4380
4180
E080
ENDCHAR

STARTCHAR O
ENCODING 79
SWIDTH 778 0
DWIDTH 11 0
BBX 9 10 1 0
BITMAP
3E00
6300
C180
C180
C180
C180
C180
C180
6300
3E00
ENDCHAR

STARTCHAR P
ENCODING 80
SWIDTH 611 0
DWIDTH 9 0
BBX 8 10 0 0
BITMAP
FE
63
63
63
63
7E
60
60
60
F0
ENDCHAR

STARTCHAR Q
ENCODING 81
SWIDTH 778 0
DWIDTH 11 0
BBX 9 12 0 -2
BITMAP
3E00
6300
C180
C180
C180
C180
C180
C180
6300
3E00
0E00
0780
ENDCHAR

STARTCHAR R
ENCODING 82
SWIDTH 722 0
DWIDTH 10 0
BBX 9 10 1 0
BITMAP
FE00
6300
6300
6300
6300
7E00
6E00
6700
6300
F380
ENDCHAR

STARTCHAR S
ENCODING 83
SWIDTH 556 0
DWIDTH 8 0
BBX 6 10 1 0
BITMAP
7C
CC
C4
E4
70
38
9C
8C
CC
F8
ENDCHAR

STARTCHAR T
ENCODING 84
SWIDTH 667 0
DWIDTH 9 0
BBX 8 10 0 0
BITMAP
FF
DB
99
18
18
18
18
18
18
3C
ENDCHAR

STARTCHAR U
ENCODING 85
SWIDTH 722 0
DWIDTH 10 0
BBX 9 10 1 0
BITMAP
F380
6100
6100
6100
6100
6100
6100
6100
6300
3E00
ENDCHAR

STARTCHAR V
ENCODING 86
SWIDTH 722 0
DWIDTH 10 0
BBX 10 10 0 0
BITMAP
F9C0
6180
7100
3300
3200
1E00
1C00
1C00
0800
0800
ENDCHAR

STARTCHAR W
ENCODING 87
SWIDTH 1000 0
DWIDTH 14 0
BBX 14 10 0 0
BITMAP
F79C
6308
7398
3390
37B0
14A0
1CE0
1CE0
0840
0840
ENDCHAR

STARTCHAR X
ENCODING 88
SWIDTH 722 0
DWIDTH 10 0
BBX 9 10 0 0
BITMAP
F380
6100
3200
3400
1C00
1C00
1600
2600
4300
E780
ENDCHAR

STARTCHAR Y
ENCODING 89
SWIDTH 722 0
DWIDTH 10 0
BBX 10 10 0 0
BITMAP
F1C0
6080
3100
1A00
0C00
0C00
0C00
0C00
0C00
1E00
ENDCHAR

STARTCHAR Z
ENCODING 90
SWIDTH 667 0
DWIDTH 9 0
BBX 8 10 1 0
BITMAP
7F
C6
86
0C
18
18
31
61
63
FF
ENDCHAR

STARTCHAR bracketleft
ENCODING 91
SWIDTH 333 0
DWIDTH 5 0
BBX 4 12 1 -2
BITMAP
F0
C0
C0
C0
C0
C0
C0
C0
C0
C0
C0
F0
ENDCHAR

STARTCHAR backslash
ENCODING 92
SWIDTH 278 0
DWIDTH 4 0
BBX 4 10 0 0
BITMAP
80
80
40
40
40
20
20
20
10
10
ENDCHAR

STARTCHAR bracketright
ENCODING 93
SWIDTH 333 0
DWIDTH 5 0
BBX 4 12 0 -2
BITMAP
F0
30
30
30
30
30
30
30
30
30
30
F0
ENDCHAR

STARTCHAR asciicircum
ENCODING 94
SWIDTH 581 0
DWIDTH 8 0
BBX 5 6 2 4
BITMAP
20
70
50
D8
88
88
ENDCHAR

STARTCHAR underscore
ENCODING 95
SWIDTH 500 0
DWIDTH 7 0
BBX 7 1 0 -2
BITMAP
FE
ENDCHAR

STARTCHAR quoteleft
ENCODING 96
SWIDTH 333 0
DWIDTH 5 0
BBX 2 4 1 6
BITMAP
40
80
C0
C0
ENDCHAR

STARTCHAR a
ENCODING 97
SWIDTH 500 0
DWIDTH 7 0
BBX 7 7 0 0
BITMAP
78
CC
CC
3C
CC
CC
F6
ENDCHAR

STARTCHAR b
ENCODING 98
SWIDTH 556 0
DWIDTH 8 0
BBX 7 10 0 0
BITMAP
E0
60
60
6C
76
66
66
66
66
5C
ENDCHAR

STARTCHAR c
ENCODING 99
SWIDTH 444 0
DWIDTH 6 0
BBX 5 7 1 0
BITMAP
78
D8
C0
C0
C0
E8
70
ENDCHAR

STARTCHAR d
ENCODING 100
SWIDTH 556 0
DWIDTH 8 0
BBX 7 10 0 0
BITMAP
1C
0C
0C
6C
DC
CC
CC
CC
CC
76
ENDCHAR

STARTCHAR e
ENCODING 101
SWIDTH 444 0
DWIDTH 6 0
BBX 6 7 0 0
BITMAP
78
CC
CC
FC
C0
C4
78
ENDCHAR

STARTCHAR f
ENCODING 102
SWIDTH 333 0
DWIDTH 5 0
BBX 5 10 0 0
BITMAP
38
68
60
F0
60
60
60
60
60
F0
ENDCHAR

STARTCHAR g
ENCODING 103
SWIDTH 500 0
DWIDTH 7 0
BBX 7 10 0 -3
BITMAP
7E
CC
CC
CC
38
C0
FC
7E
82
7C
ENDCHAR

STARTCHAR h
ENCODING 104
SWIDTH 556 0
DWIDTH 8 0
BBX 8 10 0 0
BITMAP
E0
60
60
6E
76
66
66
66
66
F7
ENDCHAR

STARTCHAR i
ENCODING 105
SWIDTH 278 0
DWIDTH 4 0
BBX 4 10 -1 0
BITMAP
60
60
00
E0
60
60
60
60
60
F0
ENDCHAR

STARTCHAR j
ENCODING 106
SWIDTH 333 0
DWIDTH 5 0
BBX 4 13 0 -3
BITMAP
30
30
00
70
30
30
30
30
30
30
30
B0
E0
ENDCHAR

STARTCHAR k
ENCODING 107
SWIDTH 556 0
DWIDTH 8 0
BBX 8 10 0 0
BITMAP
E0
60
60
6F
64
68
78
6C
66
F7
ENDCHAR

STARTCHAR l
ENCODING 108
SWIDTH 278 0
DWIDTH 4 0
BBX 4 10 0 0
BITMAP
E0
60
60
60
60
60
60
60
60
F0
ENDCHAR

STARTCHAR m
ENCODING 109
SWIDTH 833 0
DWIDTH 12 0
BBX 12 7 0 0
BITMAP
EEE0
7760
6660
6660
6660
6660
F770
ENDCHAR

STARTCHAR n
ENCODING 110
SWIDTH 556 0
DWIDTH 8 0
BBX 8 7 0 0
BITMAP
EE
76
66
66
66
66
F7
ENDCHAR

STARTCHAR o
ENCODING 111
SWIDTH 500 0
DWIDTH 7 0
BBX 6 7 0 0
BITMAP
78
CC
CC
CC
CC
CC
78
ENDCHAR

STARTCHAR p
ENCODING 112
SWIDTH 556 0
DWIDTH 8 0
BBX 7 10 0 -3
BITMAP
DC
66
66
66
66
76
6C
60
60
F0
ENDCHAR

STARTCHAR q
ENCODING 113
SWIDTH 556 0
DWIDTH 8 0
BBX 7 10 0 -3
BITMAP
74
CC
CC
CC
CC
DC
6C
0C
0C
1E
ENDCHAR

STARTCHAR r
ENCODING 114
SWIDTH 444 0
DWIDTH 6 0
BBX 6 7 0 0
BITMAP
DC
6C
60
60
60
60
F0
ENDCHAR

STARTCHAR s
ENCODING 115
SWIDTH 389 0
DWIDTH 5 0
BBX 5 7 0 0
BITMAP
78
C8
E0
78
18
88
F0
ENDCHAR

STARTCHAR t
ENCODING 116
SWIDTH 333 0
DWIDTH 5 0
BBX 5 9 0 0
BITMAP
20
60
F0
60
60
60
60
68
70
ENDCHAR

STARTCHAR u
ENCODING 117
SWIDTH 556 0
DWIDTH 8 0
BBX 8 7 0 0
BITMAP
EE
66
66
66
66
6E
77
ENDCHAR

STARTCHAR v
ENCODING 118
SWIDTH 500 0
DWIDTH 7 0
BBX 6 7 0 0
BITMAP
EC
64
68
38
38
10
10
ENDCHAR

STARTCHAR w
ENCODING 119
SWIDTH 722 0
DWIDTH 10 0
BBX 10 7 0 0
BITMAP
EEC0
6E40
6E80
3B80
3B80
1100
1100
ENDCHAR

STARTCHAR x
ENCODING 120
SWIDTH 500 0
DWIDTH 7 0
BBX 7 7 0 0
BITMAP
EE
64
38
38
38
4C
DE
ENDCHAR

STARTCHAR y
ENCODING 121
SWIDTH 500 0
DWIDTH 7 0
BBX 6 10 0 -3
BITMAP
EC
64
64
28
38
38
10
10
D0
E0
ENDCHAR

STARTCHAR z
ENCODING 122
SWIDTH 444 0
DWIDTH 6 0
BBX 5 7 0 0
BITMAP
F8
98
30
70
60
C8
F8
ENDCHAR

STARTCHAR braceleft
ENCODING 123
SWIDTH 394 0
DWIDTH 6 0
BBX 4 12 1 -2
BITMAP
30
60
60
60
60
C0
C0
60
60
60
60
30
ENDCHAR

STARTCHAR bar
ENCODING 124
SWIDTH 220 0
DWIDTH 3 0
BBX 1 10 1 0
BITMAP
80
80
80
80
80
80
80
80
80
80
ENDCHAR

STARTCHAR braceright
ENCODING 125
SWIDTH 394 0
DWIDTH 6 0
BBX 4 12 1 -2
BITMAP
C0
60
60
60
60
30
30
60
60
60
60
C0
ENDCHAR

STARTCHAR asciitilde
ENCODING 126
SWIDTH 520 0
DWIDTH 7 0
BBX 7 4 0 3
BITMAP
60
F2
9E
0C
ENDCHAR

STARTCHAR exclamdown
ENCODING 161
SWIDTH 333 0
DWIDTH 5 0
BBX 2 10 1 -3
BITMAP
C0
C0
00
00
C0
C0
C0
C0
C0
C0
ENDCHAR

STARTCHAR cent
ENCODING 162
SWIDTH 500 0
DWIDTH 7 0
BBX 6 9 1 1
BITMAP
10
7C
DC
D0
D0
D0
F4
78
10
ENDCHAR

STARTCHAR sterling
ENCODING 163
SWIDTH 500 0
DWIDTH 7 0
BBX 6 10 0 0
BITMAP
3C
6C
60
70
30
F8
30
64
BC
58
ENDCHAR

STARTCHAR currency
ENCODING 164
SWIDTH 500 0
DWIDTH 7 0
BBX 7 7 0 2
BITMAP
C6
FE
6C
44
6C
FE
C6
ENDCHAR

STARTCHAR yen
ENCODING 165
SWIDTH 500 0
DWIDTH 7 0
BBX 8 10 0 0
BITMAP
F7
62
62
34
7E
18
7E
18
18
3C
ENDCHAR

STARTCHAR brokenbar
ENCODING 166
SWIDTH 220 0
DWIDTH 3 0
BBX 1 10 1 0
BITMAP
80
80
80
80
00
00
80
80
80
80
ENDCHAR

STARTCHAR section
ENCODING 167
SWIDTH 500 0
DWIDTH 7 0
BBX 5 12 1 -2
BITMAP
78
D8
C0
60
F0
98
C8
78
30
18
D8
F0
ENDCHAR

STARTCHAR dieresis
ENCODING 168
SWIDTH 333 0
DWIDTH 5 0
BBX 4 2 0 7
BITMAP
90
90
ENDCHAR

STARTCHAR copyright
ENCODING 169
SWIDTH 747 0
DWIDTH 10 0
BBX 10 10 0 0
BITMAP
1E00
6180
4E80
9240
9040
9040
9240
4C80
6180
1E00
ENDCHAR

STARTCHAR ordfeminine
ENCODING 170
SWIDTH 300 0
DWIDTH 4 0
BBX 3 6 1 4
BITMAP
E0
20
60
E0
00
E0
ENDCHAR

STARTCHAR guillemotleft
ENCODING 171
SWIDTH 500 0
DWIDTH 7 0
BBX 7 6 0 0
BITMAP
12
24
FC
FC
24
12
ENDCHAR

STARTCHAR logicalnot
ENCODING 172
SWIDTH 570 0
DWIDTH 8 0
BBX 7 4 0 0
BITMAP
FE
02
02
02
ENDCHAR

STARTCHAR hyphen
ENCODING 173
SWIDTH 333 0
DWIDTH 5 0
BBX 3 2 1 2
BITMAP
E0
E0
ENDCHAR

STARTCHAR registered
ENCODING 174
SWIDTH 747 0
DWIDTH 10 0
BBX 10 10 0 0
BITMAP
1E00
6180
5E80
8A40
8A40
8C40
8A40
5980
6180
1E00
ENDCHAR

STARTCHAR macron
ENCODING 175
SWIDTH 333 0
DWIDTH 5 0
BBX 4 1 0 7
BITMAP
F0
ENDCHAR

STARTCHAR degree
ENCODING 176
SWIDTH 400 0
DWIDTH 7 0
BBX 5 5 1 5
BITMAP
70
88
88
88
70
ENDCHAR

STARTCHAR plusminus
ENCODING 177
SWIDTH 570 0
DWIDTH 8 0
BBX 7 9 0 0
BITMAP
10
10
10
FE
10
10
10
00
FE
ENDCHAR

STARTCHAR twosuperior
ENCODING 178
SWIDTH 300 0
DWIDTH 4 0
BBX 3 6 -4 4
BITMAP
40
E0
20
20
40
E0
ENDCHAR

STARTCHAR threesuperior
ENCODING 179
SWIDTH 300 0
DWIDTH 4 0
BBX 3 6 -4 4
BITMAP
60
A0
40
20
20
C0
ENDCHAR

STARTCHAR acute
ENCODING 180
SWIDTH 333 0
DWIDTH 5 0
BBX 3 2 1 8
BITMAP
60
C0
ENDCHAR

STARTCHAR mu
ENCODING 181
SWIDTH 556 0
DWIDTH 8 0
BBX 8 10 0 -3
BITMAP
EE
66
66
66
66
66
5B
40
60
60
ENDCHAR

STARTCHAR paragraph
ENCODING 182
SWIDTH 540 0
DWIDTH 8 0
BBX 7 12 0 -2
BITMAP
7E
F4
F4
F4
F4
74
14
14
14
14
14
14
ENDCHAR

STARTCHAR periodcentered
ENCODING 183
SWIDTH 250 0
DWIDTH 7 0
BBX 2 2 2 5
BITMAP
C0
C0
ENDCHAR

STARTCHAR cedilla
ENCODING 184
SWIDTH 333 0
DWIDTH 5 0
BBX 4 3 0 -3
BITMAP
60
30
F0
ENDCHAR

STARTCHAR onesuperior
ENCODING 185
SWIDTH 300 0
DWIDTH 4 0
BBX 3 6 -4 4
BITMAP
40
C0
40
40
40
E0
ENDCHAR

STARTCHAR ordmasculine
ENCODING 186
SWIDTH 330 0
DWIDTH 5 0
BBX 4 6 0 4
BITMAP
60
90
90
60
00
F0
ENDCHAR

STARTCHAR guillemotright
ENCODING 187
SWIDTH 500 0
DWIDTH 7 0
BBX 7 6 0 0
BITMAP
90
48
7E
7E
48
90
ENDCHAR

STARTCHAR onequarter
ENCODING 188
SWIDTH 750 0
DWIDTH 11 0
BBX 10 10 1 0
BITMAP
4080
C100
4100
4200
4480
E480
0980
1280
13C0
2080
ENDCHAR

STARTCHAR onehalf
ENCODING 189
SWIDTH 750 0
DWIDTH 11 0
BBX 9 10 1 0
BITMAP
4100
C200
4200
4400
4900
EB80
1080
2080
2100
4380
ENDCHAR

STARTCHAR threequarters
ENCODING 190
SWIDTH 750 0
DWIDTH 11 0
BBX 10 10 1 0
BITMAP
6080
A100
4100
2200
2480
C480
0980
1280
13C0
2080
ENDCHAR

STARTCHAR questiondown
ENCODING 191
SWIDTH 500 0
DWIDTH 7 0
BBX 5 11 1 -4
BITMAP
30
30
00
00
20
20
40
D8
D8
C8
70
ENDCHAR

STARTCHAR Agrave
ENCODING 192
SWIDTH 722 0
DWIDTH 10 0
BBX 9 13 0 0
BITMAP
1800
0C00
0000
0800
0800
1C00
1C00
1C00
2600
2600
7F00
4300
E780
ENDCHAR

STARTCHAR Aacute
ENCODING 193
SWIDTH 722 0
DWIDTH 10 0
BBX 9 13 0 0
BITMAP
0600
0C00
0000
0800
0800
1C00
1C00
1C00
2600
2600
7F00
4300
E780
ENDCHAR

STARTCHAR Acircumflex
ENCODING 194
SWIDTH 722 0
DWIDTH 10 0
BBX 9 13 0 0
BITMAP
0800
1C00
2200
0800
0800
1C00
1C00
1C00
2600
2600
7F00
4300
E780
ENDCHAR

STARTCHAR Atilde
ENCODING 195
SWIDTH 722 0
DWIDTH 10 0
BBX 9 13 0 0
BITMAP
1A00
2C00
0000
0800
0800
1C00
1C00
1C00
2600
2600
7F00
4300
E780
ENDCHAR

STARTCHAR Adieresis
ENCODING 196
SWIDTH 722 0
DWIDTH 10 0
BBX 9 13 0 0
BITMAP
3600
3600
0000
0800
0800
1C00
1C00
1C00
2600
2600
7F00
4300
E780
ENDCHAR

STARTCHAR Aring
ENCODING 197
SWIDTH 722 0
DWIDTH 10 0
BBX 9 14 0 0
BITMAP
1C00
1400
1C00
0000
0800
0800
1C00
1C00
1C00
2600
2600
7F00
4300
E780
ENDCHAR

STARTCHAR AE
ENCODING 198
SWIDTH 1000 0
DWIDTH 14 0
BBX 13 10 0 0
BITMAP
0FF0
0710
0B50
0B40
1FC0
1340
2340
2308
4318
E7F0
ENDCHAR

STARTCHAR Ccedilla
ENCODING 199
SWIDTH 722 0
DWIDTH 10 0
BBX 8 13 1 -3
BITMAP
3D
63
C1
C1
C0
C0
C0
C1
63
3C
18
0C
3C
ENDCHAR

STARTCHAR Egrave
ENCODING 200
SWIDTH 667 0
DWIDTH 9 0
BBX 9 13 0 0
BITMAP
1800
0C00
0000
FF00
6100
6500
6400
7C00
6400
6400
6080
6180
FF00
ENDCHAR

STARTCHAR Eacute
ENCODING 201
SWIDTH 667 0
DWIDTH 9 0
BBX 9 13 0 0
BITMAP
0C00
1800
0000
FF00
6100
6500
6400
7C00
6400
6400
6080
6180
FF00
ENDCHAR

STARTCHAR Ecircumflex
ENCODING 202
SWIDTH 667 0
DWIDTH 9 0
BBX 9 13 0 0
BITMAP
1C00
3600
0000
FF00
6100
6500
6400
7C00
6400
6400
6080
6180
FF00
ENDCHAR

STARTCHAR Edieresis
ENCODING 203
SWIDTH 667 0
DWIDTH 9 0
BBX 9 13 0 0
BITMAP
3600
3600
0000
FF00
6100
6500
6400
7C00
6400
6400
6080
6180
FF00
ENDCHAR

STARTCHAR Igrave
ENCODING 204
SWIDTH 389 0
DWIDTH 5 0
BBX 4 13 1 0
BITMAP
C0
60
00
F0
60
60
60
60
60
60
60
60
F0
ENDCHAR

STARTCHAR Iacute
ENCODING 205
SWIDTH 389 0
DWIDTH 5 0
BBX 4 13 1 0
BITMAP
30
60
00
F0
60
60
60
60
60
60
60
60
F0
ENDCHAR

STARTCHAR Icircumflex
ENCODING 206
SWIDTH 389 0
DWIDTH 5 0
BBX 4 13 1 0
BITMAP
60
90
00
F0
60
60
60
60
60
60
60
60
F0
ENDCHAR

STARTCHAR Idieresis
ENCODING 207
SWIDTH 389 0
DWIDTH 5 0
BBX 4 13 1 0
BITMAP
90
90
00
F0
60
60
60
60
60
60
60
60
F0
ENDCHAR

STARTCHAR Eth
ENCODING 208
SWIDTH 722 0
DWIDTH 10 0
BBX 9 10 0 0
BITMAP
FE00
6300
6180
6180
F180
6180
6180
6180
6300
FE00
ENDCHAR

STARTCHAR Ntilde
ENCODING 209
SWIDTH 722 0
DWIDTH 10 0
BBX 10 13 0 0
BITMAP
1D00
2E00
0000
E1C0
7080
7880
5880
4C80
4680
4780
4380
4180
E080
ENDCHAR

STARTCHAR Ograve
ENCODING 210
SWIDTH 778 0
DWIDTH 11 0
BBX 9 13 1 0
BITMAP
1800
0C00
0000
3E00
6300
C180
C180
C180
C180
C180
C180
6300
3E00
ENDCHAR

STARTCHAR Oacute
ENCODING 211
SWIDTH 778 0
DWIDTH 11 0
BBX 9 13 1 0
BITMAP
0C00
1800
0000
3E00
6300
C180
C180
C180
C180
C180
C180
6300
3E00
ENDCHAR

STARTCHAR Ocircumflex
ENCODING 212
SWIDTH 778 0
DWIDTH 11 0
BBX 9 13 1 0
BITMAP
1C00
3600
0000
3E00
6300
C180
C180
C180
C180
C180
C180
6300
3E00
ENDCHAR

STARTCHAR Otilde
ENCODING 213
SWIDTH 778 0
DWIDTH 11 0
BBX 9 13 1 0
BITMAP
1A00
2C00
0000
3E00
6300
4100
C180
C180
C180
C180
4100
6300
3E00
ENDCHAR

STARTCHAR Odieresis
ENCODING 214
SWIDTH 778 0
DWIDTH 11 0
BBX 9 13 1 0
BITMAP
3600
3600
0000
3E00
6300
C180
C180
C180
C180
C180
C180
6300
3E00
ENDCHAR

STARTCHAR multiply
ENCODING 215
SWIDTH 570 0
DWIDTH 8 0
BBX 6 5 1 2
BITMAP
CC
78
30
78
CC
ENDCHAR

STARTCHAR Oslash
ENCODING 216
SWIDTH 778 0
DWIDTH 11 0
BBX 9 12 1 -1
BITMAP
0080
3F00
6300
C380
C580
C980
C980
D180
E180
6300
7E00
8000
ENDCHAR

STARTCHAR Ugrave
ENCODING 217
SWIDTH 722 0
DWIDTH 10 0
BBX 9 13 1 0
BITMAP
1800
0C00
0000
F380
6100
6100
6100
6100
6100
6100
6100
6300
3E00
ENDCHAR

STARTCHAR Uacute
ENCODING 218
SWIDTH 722 0
DWIDTH 10 0
BBX 9 13 1 0
BITMAP
0C00
1800
0000
F380
6100
6100
6100
6100
6100
6100
6100
6300
3E00
ENDCHAR

STARTCHAR Ucircumflex
ENCODING 219
SWIDTH 722 0
DWIDTH 10 0
BBX 9 13 1 0
BITMAP
1C00
3600
0000
F380
6100
6100
6100
6100
6100
6100
6100
6300
3E00
ENDCHAR

STARTCHAR Udieresis
ENCODING 220
SWIDTH 722 0
DWIDTH 10 0
BBX 9 13 1 0
BITMAP
3600
3600
0000
F380
6100
6100
6100
6100
6100
6100
6100
6300
3E00
ENDCHAR

STARTCHAR Yacute
ENCODING 221
SWIDTH 722 0
DWIDTH 10 0
BBX 10 13 0 0
BITMAP
0600
0C00
0000
F1C0
6080
3100
1A00
0C00
0C00
0C00
0C00
0C00
1E00
ENDCHAR

STARTCHAR Thorn
ENCODING 222
SWIDTH 611 0
DWIDTH 9 0
BBX 8 10 0 0
BITMAP
F0
60
7E
67
63
63
67
7E
60
F0
ENDCHAR

STARTCHAR germandbls
ENCODING 223
SWIDTH 556 0
DWIDTH 8 0
BBX 7 10 0 0
BITMAP
3C
66
66
66
6C
66
66
66
66
EC
ENDCHAR

STARTCHAR agrave
ENCODING 224
SWIDTH 500 0
DWIDTH 7 0
BBX 7 10 0 0
BITMAP
60
30
00
78
CC
CC
3C
CC
CC
F6
ENDCHAR

STARTCHAR aacute
ENCODING 225
SWIDTH 500 0
DWIDTH 7 0
BBX 7 10 0 0
BITMAP
18
30
00
78
CC
CC
3C
CC
CC
F6
ENDCHAR

STARTCHAR acircumflex
ENCODING 226
SWIDTH 500 0
DWIDTH 7 0
BBX 7 10 0 0
BITMAP
30
48
00
78
CC
CC
3C
CC
CC
F6
ENDCHAR

STARTCHAR atilde
ENCODING 227
SWIDTH 500 0
DWIDTH 7 0
BBX 7 10 0 0
BITMAP
28
50
00
78
CC
CC
3C
CC
CC
FE
ENDCHAR

STARTCHAR adieresis
ENCODING 228
SWIDTH 500 0
DWIDTH 7 0
BBX 7 10 0 0
BITMAP
48
48
00
78
CC
CC
3C
CC
CC
F6
ENDCHAR

STARTCHAR aring
ENCODING 229
SWIDTH 500 0
DWIDTH 7 0
BBX 7 11 0 0
BITMAP
30
48
30
00
78
CC
CC
3C
CC
CC
FE
ENDCHAR

STARTCHAR ae
ENCODING 230
SWIDTH 722 0
DWIDTH 10 0
BBX 9 7 1 0
BITMAP
7700
D980
D980
3F80
D800
D880
EF00
ENDCHAR

STARTCHAR ccedilla
ENCODING 231
SWIDTH 444 0
DWIDTH 6 0
BBX 5 10 1 -3
BITMAP
78
D8
C0
C0
C0
E8
70
60
30
70
ENDCHAR

STARTCHAR egrave
ENCODING 232
SWIDTH 444 0
DWIDTH 6 0
BBX 6 10 0 0
BITMAP
60
30
00
78
CC
CC
FC
C0
C4
78
ENDCHAR

STARTCHAR eacute
ENCODING 233
SWIDTH 444 0
DWIDTH 6 0
BBX 6 10 0 0
BITMAP
18
30
00
78
CC
CC
FC
C0
C4
78
ENDCHAR

STARTCHAR ecircumflex
ENCODING 234
SWIDTH 444 0
DWIDTH 6 0
BBX 6 10 0 0
BITMAP
30
48
00
78
CC
CC
FC
C0
C4
78
ENDCHAR

STARTCHAR edieresis
ENCODING 235
SWIDTH 444 0
DWIDTH 6 0
BBX 6 10 0 0
BITMAP
48
48
00
78
CC
CC
FC
C0
C4
78
ENDCHAR

STARTCHAR igrave
ENCODING 236
SWIDTH 278 0
DWIDTH 4 0
BBX 4 10 0 0
BITMAP
C0
60
00
E0
60
60
60
60
60
F0
ENDCHAR

STARTCHAR iacute
ENCODING 237
SWIDTH 278 0
DWIDTH 4 0
BBX 4 10 0 0
BITMAP
30
60
00
E0
60
60
60
60
60
F0
ENDCHAR

STARTCHAR icircumflex
ENCODING 238
SWIDTH 278 0
DWIDTH 4 0
BBX 4 10 0 0
BITMAP
60
90
00
E0
60
60
60
60
60
F0
ENDCHAR

STARTCHAR idieresis
ENCODING 239
SWIDTH 278 0
DWIDTH 4 0
BBX 4 10 0 0
BITMAP
90
90
00
E0
60
60
60
60
60
F0
ENDCHAR

STARTCHAR eth
ENCODING 240
SWIDTH 500 0
DWIDTH 7 0
BBX 6 10 1 0
BITMAP
C8
30
48
78
CC
CC
CC
CC
CC
78
ENDCHAR

STARTCHAR ntilde
ENCODING 241
SWIDTH 556 0
DWIDTH 8 0
BBX 8 10 0 0
BITMAP
34
2C
00
EE
76
66
66
66
66
F7
ENDCHAR

STARTCHAR ograve
ENCODING 242
SWIDTH 500 0
DWIDTH 7 0
BBX 6 10 0 0
BITMAP
60
30
00
78
CC
CC
CC
CC
CC
78
ENDCHAR

STARTCHAR oacute
ENCODING 243
SWIDTH 500 0
DWIDTH 7 0
BBX 6 10 0 0
BITMAP
18
30
00
78
CC
CC
CC
CC
CC
78
ENDCHAR

STARTCHAR ocircumflex
ENCODING 244
SWIDTH 500 0
DWIDTH 7 0
BBX 6 10 0 0
BITMAP
30
48
00
78
CC
CC
CC
CC
CC
78
ENDCHAR

STARTCHAR otilde
ENCODING 245
SWIDTH 500 0
DWIDTH 7 0
BBX 6 10 0 0
BITMAP
68
58
00
78
CC
CC
CC
CC
CC
78
ENDCHAR

STARTCHAR odieresis
ENCODING 246
SWIDTH 500 0
DWIDTH 7 0
BBX 6 10 0 0
BITMAP
48
48
00
78
CC
CC
CC
CC
CC
78
ENDCHAR

STARTCHAR divide
ENCODING 247
SWIDTH 570 0
DWIDTH 8 0
BBX 6 7 1 0
BITMAP
30
30
00
FC
00
30
30
ENDCHAR

STARTCHAR oslash
ENCODING 248
SWIDTH 500 0
DWIDTH 7 0
BBX 6 8 0 0
BITMAP
04
78
CC
DC
EC
EC
CC
78
ENDCHAR

STARTCHAR ugrave
ENCODING 249
SWIDTH 556 0
DWIDTH 8 0
BBX 8 10 0 0
BITMAP
30
18
00
EE
66
66
66
66
6E
77
ENDCHAR

STARTCHAR uacute
ENCODING 250
SWIDTH 556 0
DWIDTH 8 0
BBX 8 10 0 0
BITMAP
0C
18
00
EE
66
66
66
66
6E
77
ENDCHAR

STARTCHAR ucircumflex
ENCODING 251
SWIDTH 556 0
DWIDTH 8 0
BBX 8 10 0 0
BITMAP
18
24
00
EE
66
66
66
66
6E
77
ENDCHAR

STARTCHAR udieresis
ENCODING 252
SWIDTH 556 0
DWIDTH 8 0
BBX 8 10 0 0
BITMAP
24
24
00
EE
66
66
66
66
6E
77
ENDCHAR

STARTCHAR yacute
ENCODING 253
SWIDTH 500 0
DWIDTH 7 0
BBX 6 13 0 -3
BITMAP
18
30
00
EC
64
64
28
38
38
10
10
D0
E0
ENDCHAR

STARTCHAR thorn
ENCODING 254
SWIDTH 556 0
DWIDTH 8 0
BBX 7 13 0 -3
BITMAP
E0
60
60
7C
66
66
66
66
66
7C
60
60
F0
ENDCHAR

STARTCHAR ydieresis
ENCODING 255
SWIDTH 500 0
DWIDTH 7 0
BBX 6 13 0 -3
BITMAP
48
48
00
EC
64
64
28
38
38
10
10
D0
E0
ENDCHAR
ENDFONT
